<svg width="117" height="41" viewBox="0 0 117 41" xmlns="http://www.w3.org/2000/svg"><defs><linearGradient id="a" gradientUnits="userSpaceOnUse" x1="0" y1="56.11" x2="108.336" y2="56.11" gradientTransform="scale(.36025 .36283)"><stop offset="0" style="stop-color:#fbd900;stop-opacity:1"/><stop offset=".034" style="stop-color:#face03;stop-opacity:1"/><stop offset=".166" style="stop-color:#f6aa0d;stop-opacity:1"/><stop offset=".305" style="stop-color:#f28b16;stop-opacity:1"/><stop offset=".45" style="stop-color:#ef741d;stop-opacity:1"/><stop offset=".605" style="stop-color:#ed6321;stop-opacity:1"/><stop offset=".775" style="stop-color:#ec5924;stop-opacity:1"/><stop offset=".991" style="stop-color:#ec5625;stop-opacity:1"/><stop offset="1" style="stop-color:#ec5625;stop-opacity:1"/></linearGradient></defs><path style="stroke:none;fill-rule:nonzero;fill:url(#a)" d="M38.129 33.926c-.727-.926-1.863-1.742-2.774-2.352-1.96-1.316-3.753-2.25-5.703-2.98L20.45 3.016a5.287 5.287 0 0 0-.734-1.438C18.965.547 17.965 0 16.816 0c-1.148 0-2.148.547-2.894 1.578a5.473 5.473 0 0 0-.738 1.438L.059 39.398a.984.984 0 0 0 .586 1.258c.109.043.222.063.332.063a.98.98 0 0 0 .785-.403 1.35 1.35 0 0 0 .086-.12 22.77 22.77 0 0 1 8.086-8.083 22.428 22.428 0 0 1 11.332-3.07c1.816 0 3.601.219 5.332.64.523.141 1.039.297 1.53.462l1.68 4.675.005.012c.003.02.68 1.828 1.164 3.063.57 1.449 1.613 2.414 2.941 2.71.277.063.559.094.844.094a4.37 4.37 0 0 0 2.968-1.203c.836-.789 1.286-1.793 1.297-2.906a4.316 4.316 0 0 0-.898-2.664Zm-29.18-3.512a24.715 24.715 0 0 0-4.941 3.82L15.047 3.61c.004-.007.168-.476.48-.91.336-.472.711-.73 1.29-.73.581 0 .96.265 1.292.73.309.43.465.875.477.914l8.71 24.219a24.38 24.38 0 0 0-18.348 2.582Zm27.446 7.648c-.575.54-1.36.782-2.051.626-.684-.157-1.223-.68-1.551-1.516a234.067 234.067 0 0 1-1.148-3.024l-1.094-3.05c1.23.566 2.433 1.254 3.722 2.113.79.531 1.766 1.227 2.32 1.937.497.63.848 1.926-.198 2.914Zm0 0"/><path style="stroke:none;fill-rule:nonzero;fill:#333;fill-opacity:1" d="M39.414 15.559h-1.043l-1.004-2.286h-4.664l-1.02 2.286h-.992l3.91-8.7h.907ZM35.04 8.008l-1.957 4.402h3.906ZM46.96 11.867c0 .633-.085 1.192-.257 1.668a3.274 3.274 0 0 1-.726 1.195 3.03 3.03 0 0 1-1.13.723c-.433.16-.921.238-1.46.238a4.2 4.2 0 0 1-1.453-.238 3.014 3.014 0 0 1-1.125-.715 3.196 3.196 0 0 1-.73-1.18c-.173-.468-.259-1.007-.259-1.617v-5.02h.97v4.962c0 .937.23 1.656.69 2.156.461.504 1.106.754 1.93.754.793 0 1.422-.238 1.887-.715.465-.48.7-1.191.7-2.137v-5.02h.964ZM51.75 15.559h-.965V7.82h-2.879v-.898h6.723v.898H51.75ZM63.227 12.934a4.52 4.52 0 0 1-.895 1.425 4.197 4.197 0 0 1-1.383.98 4.322 4.322 0 0 1-1.789.368c-.652 0-1.25-.121-1.781-.36A4.248 4.248 0 0 1 56 14.38a4.29 4.29 0 0 1-.887-1.418 4.65 4.65 0 0 1-.312-1.711 4.563 4.563 0 0 1 1.21-3.133c.384-.41.844-.738 1.384-.98a4.32 4.32 0 0 1 1.789-.364c.652 0 1.25.122 1.78.36.536.238.997.558 1.38.965.383.41.68.882.886 1.422.211.539.313 1.105.313 1.707 0 .601-.105 1.171-.316 1.707Zm-.938-3.075a3.443 3.443 0 0 0-.703-1.136 3.475 3.475 0 0 0-1.074-.766 3.22 3.22 0 0 0-1.352-.281 3.237 3.237 0 0 0-2.414 1.035c-.293.32-.523.695-.691 1.129-.168.43-.25.894-.25 1.387 0 .492.082.96.25 1.394.168.438.402.813.703 1.137.3.32.66.574 1.074.762.41.19.863.285 1.352.285.488 0 .941-.094 1.355-.278.41-.187.766-.437 1.059-.757.293-.325.523-.7.691-1.13.168-.433.25-.894.25-1.39a3.82 3.82 0 0 0-.25-1.39ZM69.04 13.188h-.048l-3.125-4.614v6.985h-.941V6.922h.976l3.125 4.71 3.125-4.71h.977v8.637h-.965V8.563ZM82.809 15.559h-1.043l-1.004-2.286h-4.668l-1.016 2.286h-.992l3.906-8.7h.906Zm-4.375-7.551-1.961 4.402h3.91ZM85.82 15.559h-.968V7.82h-2.88v-.898H88.7v.898H85.82ZM90.727 6.922v8.637h-.97V6.922ZM100.613 12.934a4.384 4.384 0 0 1-.894 1.425 4.197 4.197 0 0 1-1.383.98 4.322 4.322 0 0 1-1.79.368 4.332 4.332 0 0 1-1.78-.36 4.248 4.248 0 0 1-1.38-.968 4.289 4.289 0 0 1-.886-1.418 4.732 4.732 0 0 1-.313-1.711c0-.598.106-1.168.32-1.707.212-.54.509-1.012.891-1.426.387-.41.848-.738 1.387-.98a4.308 4.308 0 0 1 1.79-.364c.652 0 1.245.122 1.78.36a4.222 4.222 0 0 1 2.266 2.387c.207.539.313 1.105.313 1.707 0 .601-.106 1.171-.32 1.707Zm-.937-3.075a3.443 3.443 0 0 0-.703-1.136c-.301-.32-.66-.575-1.07-.766a3.239 3.239 0 0 0-1.356-.281c-.488 0-.942.09-1.352.277a3.199 3.199 0 0 0-1.062.758c-.293.32-.524.695-.692 1.129-.168.43-.25.894-.25 1.387 0 .492.082.96.25 1.394.168.438.403.813.707 1.137.301.32.657.574 1.07.762.415.19.864.285 1.356.285.489 0 .938-.094 1.352-.278a3.198 3.198 0 0 0 1.058-.757c.293-.325.524-.7.692-1.13.168-.433.254-.894.254-1.39 0-.492-.086-.957-.254-1.39ZM108.621 6.922h.942v8.637h-.774l-5.535-7.082v7.082h-.942V6.922h.907l5.402 6.922ZM42.145 19.922h1.738l3.676 8.695h-1.973l-.785-1.933h-3.625l-.785 1.933h-1.922Zm1.984 5.082-1.14-2.8-1.137 2.8ZM48.16 19.984h1.738l4.02 5.317v-5.317h1.86v8.633h-1.606l-4.149-5.488v5.488H48.16ZM59.598 25.215l-3.297-5.23h2.207l2.043 3.464 2.082-3.465h2.144l-3.293 5.192v3.441h-1.886ZM64.988 19.984h2.024l1.773 5.848 1.926-5.875h1.617l1.922 5.875 1.777-5.848h1.97L75.07 28.68h-1.64l-1.938-5.649-1.933 5.649h-1.641ZM78.629 19.984h1.887v3.418h3.476v-3.418h1.887v8.633h-1.887v-3.465h-3.476v3.465h-1.887ZM87.367 19.984h6.457v1.688H89.23v1.754h4.043v1.691H89.23v1.813h4.657v1.687h-6.52ZM95.055 19.984h3.918c1.086 0 1.922.293 2.5.875.492.493.734 1.153.734 1.973v.027c0 .7-.168 1.266-.508 1.707-.34.442-.781.762-1.328.97l2.094 3.081h-2.203l-1.84-2.762h-1.48v2.762h-1.887Zm3.797 4.196c.464 0 .824-.114 1.07-.336.25-.223.375-.516.375-.887v-.023c0-.414-.129-.723-.39-.926-.262-.207-.626-.309-1.09-.309H96.94v2.48ZM103.316 19.984h6.457v1.688h-4.593v1.754h4.043v1.691h-4.043v1.813h4.652v1.687h-6.516Zm0 0"/><path style="stroke:none;fill-rule:nonzero;fill:#bbbdbf;fill-opacity:1" d="M111.738 6.512h-.851v-.305h2.05v.305h-.851v2.195h-.348ZM113.418 6.207h.367l.567 1.352c.058.14.125.336.125.336h.007s.067-.196.121-.336l.57-1.352h.368l.2 2.5h-.345l-.125-1.578c-.007-.152 0-.367 0-.367h-.007s-.075.23-.137.367l-.496 1.129h-.309l-.492-1.13c-.055-.132-.133-.374-.133-.374h-.008s.004.223-.007.375l-.121 1.578h-.348Zm0 0"/></svg>