<svg width="128" height="128" viewBox="0 0 128 128" fill="none" xmlns="http://www.w3.org/2000/svg"><path d="M66.288 26.41l5.606 10.281 11.5 2.149-8.043 8.503 1.509 11.611-10.572-5.016-10.571 5.016 1.508-11.61-8.043-8.504 11.5-2.149 5.606-10.282z" stroke="#007FED" stroke-width="4" stroke-miterlimit="10" stroke-linecap="round"/><path d="M34.843 94.336v4.707H23.152V67.697h11.69v28.208M56.126 83.425H77.51a11.681 11.681 0 00-11.681-11.691h-9.703l-11.63-3.997h-9.353" stroke="#007FED" stroke-width="4" stroke-miterlimit="10"/><path d="M35.143 91.189l13.519 7.854h27.279l30.556-18.036a11.603 11.603 0 00-7.054-5.414 11.59 11.59 0 00-8.814 1.177l-11.31 6.655H69.085" stroke="#007FED" stroke-width="4" stroke-miterlimit="10"/></svg>
