<svg width="128" height="128" viewBox="0 0 128 128" fill="none" xmlns="http://www.w3.org/2000/svg"><path fill-rule="evenodd" clip-rule="evenodd" d="M96.982 49.872v48.583H31V32.323h52.805a15.331 15.331 0 00-.092 4H35v58.132h57.982V48.789c1.276.54 2.622.905 4 1.083z" fill="#007FED"/><path d="M63.926 64.09a8.763 8.763 0 100-17.526 8.763 8.763 0 000 17.526zM78.784 85.313v-2.668a14.86 14.86 0 10-29.707 0v2.668M112.511 34.839a15.308 15.308 0 01-13.37 15.188c-.662.09-1.33.134-1.998.13a15.328 15.328 0 1115.328-15.318h.04z" stroke="#007FED" stroke-width="4" stroke-miterlimit="10"/><path d="M89.4 35.34l5.176 5.176 10.352-10.362" stroke="#007FED" stroke-width="4" stroke-miterlimit="10"/></svg>
