<svg width="128" height="128" viewBox="0 0 128 128" fill="none" xmlns="http://www.w3.org/2000/svg"><path d="M90.93 53.598c8.589 0 15.551-6.962 15.551-15.55 0-8.588-6.962-15.55-15.55-15.55-8.588 0-15.55 6.962-15.55 15.55 0 8.588 6.962 15.55 15.55 15.55z" stroke="#007FED" stroke-width="4" stroke-linejoin="round"/><path d="M83.16 38.048l5.18 5.19 10.36-10.37M64.375 64.625a5.765 5.765 0 115.764-5.764M64.375 64.625a5.765 5.765 0 11-5.765 5.764M64.375 47.331v5.765M64.375 81.919v-5.765" stroke="#007FED" stroke-width="4" stroke-miterlimit="10"/><path d="M81.142 25.845a43.67 43.67 0 00-28.576-1.329c-9.397 2.778-17.51 8.633-22.958 16.565-5.448 7.933-7.893 17.454-6.918 26.94.974 9.486 5.308 18.35 12.262 25.084 6.955 6.733 16.1 10.917 25.877 11.84 9.777.923 19.581-1.472 27.743-6.778 8.16-5.306 14.174-13.194 17.014-22.32a40.066 40.066 0 00-1.437-27.728l-3.745 1.51a36.243 36.243 0 011.3 25.08c-2.569 8.255-8.008 15.39-15.39 20.189-7.381 4.799-16.25 6.965-25.092 6.13-8.844-.835-17.115-4.62-23.406-10.71-6.29-6.09-10.21-14.107-11.09-22.687-.882-8.58 1.33-17.192 6.257-24.367 4.927-7.175 12.266-12.47 20.765-14.983a39.498 39.498 0 0125.847 1.202l1.547-3.638z" fill="#007FED"/></svg>
