<svg width="94" height="87" viewBox="0 0 94 87" fill="none" xmlns="http://www.w3.org/2000/svg"><path d="M39.578 86.352H.062V58.086c0-11.437.985-20.437 2.954-27 2.062-6.656 5.812-12.609 11.25-17.859C19.703 7.977 26.64 3.852 35.078.852l7.734 16.313c-7.874 2.625-13.546 6.28-17.015 10.968-3.375 4.688-5.156 10.922-5.344 18.703h19.125v39.516zM90.578 86.352H51.062V58.086c0-11.437.985-20.437 2.954-27 2.062-6.656 5.812-12.609 11.25-17.859C70.703 7.977 77.64 3.852 86.078.852l7.734 16.313c-7.874 2.625-13.546 6.28-17.015 10.968-3.375 4.688-5.156 10.922-5.344 18.703h19.125v39.516z" fill="#fff"/></svg>
