<svg width="128" height="128" viewBox="0 0 128 128" fill="none" xmlns="http://www.w3.org/2000/svg"><path fill-rule="evenodd" clip-rule="evenodd" d="M73.692 20.612h-2v20.994H50.49v21.243H29.056v37.324h18.679a15.327 15.327 0 01-.003-4H33.056V66.85h17.433v22.362a15.33 15.33 0 014-3.842V45.606h17.193v39.973a15.328 15.328 0 014.001 4.08l.01.014v-65.06h17.113v71.56H78.129a15.317 15.317 0 01-.001 4h18.678v-79.56H73.692z" fill="#007FED"/><path d="M78.259 98.173a15.307 15.307 0 01-13.37 15.189c-.662.09-1.33.134-1.998.129a15.326 15.326 0 01-10.78-26.184 15.328 15.328 0 0126.148 10.866v0z" stroke="#007FED" stroke-width="4" stroke-miterlimit="10"/><path d="M63.2 92.678l1.9 3.467 3.876.73-2.708 2.877.51 3.917-3.577-1.699-3.567 1.699.51-3.917-2.719-2.877 3.887-.73 1.889-3.467z" fill="#007FED"/></svg>
