<svg width="120" height="48" viewBox="0 0 120 48" fill="none" xmlns="http://www.w3.org/2000/svg"><path d="M95.13 13.626c3.848-4.525 6-8.232 7.734-12.796H73.246v25.572c5.86-.778 14.072-3.588 21.885-12.776Z" fill="#004DA0"/><path d="M119.606 34.155h-46.34V47.17h46.34V34.155Z" fill="#F9BE00"/><path d="M119.586.85h-14.809c-1.773 4.823-4.464 9.707-8.55 14.51-8.052 9.487-16.981 12.337-22.98 13.134v3.588h46.339V.85Z" fill="#939284"/><path d="M79.884 40.493c1.256.1 1.694.897 1.694 2.232 0 1.714-.797 2.173-2.73 2.173-1.535 0-2.332-.02-3.329-.1v-8.371c.897-.08 1.635-.1 2.95-.1 2.113 0 2.87.459 2.87 2.173 0 1.196-.418 1.814-1.435 1.913v.08h-.02Zm-2.89-2.91v2.352h1.515c1.016 0 1.355-.24 1.355-1.196 0-.937-.359-1.156-1.475-1.156h-1.395Zm1.595 6.099c1.136 0 1.475-.24 1.475-1.236 0-1.116-.38-1.415-1.535-1.415h-1.535v2.651h1.595ZM89.71 40.633c0 3.328-.897 4.344-3.448 4.344-2.552 0-3.448-1.016-3.448-4.344 0-3.329.897-4.345 3.448-4.345 2.55 0 3.448 1.016 3.448 4.345Zm-5.282 0c0 2.331.439 3.049 1.834 3.049 1.415 0 1.853-.718 1.853-3.05 0-2.331-.438-3.049-1.853-3.049s-1.834.718-1.834 3.05ZM98.081 44.26c0 .359-.2.558-.558.558h-1.196c-.319 0-.498-.14-.638-.458l-2.352-5.123c-.16-.339-.418-.857-.498-1.255h-.14c.06.418.08.857.08 1.255v5.581h-1.495v-7.813c0-.359.2-.558.578-.558h1.176c.32 0 .479.14.638.458l2.272 4.983c.16.359.399.877.578 1.316h.14c-.04-.459-.06-.917-.06-1.356v-5.401h1.475v7.813ZM106.751 44.26c0 .359-.199.558-.558.558h-1.196c-.319 0-.498-.14-.638-.458l-2.352-5.123c-.159-.339-.418-.857-.498-1.255h-.139c.059.418.079.857.079 1.255v5.581h-1.495v-7.813c0-.359.2-.558.578-.558h1.176c.319 0 .479.14.638.458l2.272 4.983c.16.359.399.877.578 1.316h.14c-.04-.459-.06-.917-.06-1.356v-5.401h1.475v7.813Z" fill="#fff"/><path d="M6.159 41.59c0 2.45-.817 3.387-3.03 3.387C.837 44.977 0 44.041 0 41.59v-5.142h1.216v5.142c0 1.714.478 2.312 1.873 2.312 1.376 0 1.874-.578 1.874-2.312v-5.142h1.216v5.142h-.02Zm8.53-5.143h-1.196v5.88c0 .438.02.857.06 1.295h-.18c-.179-.418-.418-.917-.577-1.255l-2.531-5.561c-.12-.26-.26-.379-.539-.379H8.61c-.299 0-.458.16-.458.478v7.893h1.216V38.72c0-.379-.02-.777-.06-1.156h.18c.099.359.358.857.497 1.156l2.611 5.7c.1.26.26.38.519.38h1.156c.299 0 .458-.16.458-.48v-7.872h-.04Zm2.053 8.371h1.216v-8.371h-1.216v8.371Zm9.467-8.371h-1.255l-1.874 6.517c-.08.3-.18.618-.239.917h-.319c-.08-.299-.14-.618-.24-.917l-1.892-6.517h-1.256l2.471 8.032c.06.2.24.339.459.339h1.195c.22 0 .4-.14.459-.339l2.491-8.032Zm6.338 7.354H29.24c-.479 0-.658-.199-.658-.777v-2.132h3.528v-.977H28.56v-1.674c0-.578.18-.778.658-.778h3.328l.06-.936c-1.096-.1-2.392-.1-3.587-.1-1.037 0-1.675.578-1.694 1.495v5.401c.02.917.637 1.495 1.694 1.495 1.195 0 2.491 0 3.587-.1l-.06-.917Zm7.674 1.017-.797-2.65c-.18-.718-.638-1.097-1.057-1.217v-.06c1.116-.139 1.535-.817 1.535-2.132 0-1.874-.797-2.432-2.77-2.432-1.376 0-1.993.02-2.93.1v8.371h1.196V41.35l1.714.02c.538 0 .857.24 1.056.837l.718 2.611h1.335Zm-4.784-4.484v-2.93c.459-.02 1.037-.02 1.695-.02 1.175 0 1.554.299 1.554 1.455 0 1.156-.379 1.475-1.554 1.495h-1.695Zm11.222-3.787c-.857-.2-1.734-.26-2.532-.26-1.893 0-2.75.26-2.75 2.213 0 1.276.438 2.033 1.654 2.372l1.694.478c.678.18.997.379.997 1.295 0 1.037-.359 1.216-1.595 1.236-.637 0-1.056-.02-2.57-.06l-.08.897c1.156.22 2.092.24 2.63.24 2.014 0 2.85-.38 2.85-2.313 0-1.255-.398-2.032-1.694-2.371l-1.654-.459c-.697-.18-.996-.418-.996-1.275 0-1.116.438-1.156 1.574-1.156.797 0 1.694.04 2.392.06l.08-.897Zm1.913 8.271h1.216v-8.371h-1.216v8.371Zm9.049-7.295v-1.076h-6.518v1.076h2.631v7.295h1.216v-7.295h2.67Zm5.042 4.764.778 2.531h1.255l-2.63-8.032c-.06-.2-.24-.32-.46-.32h-1.235c-.2 0-.379.12-.438.32l-2.631 8.032h1.255l.778-2.531h3.328Zm-2.55-6.757c.218 0 .318-.1.318-.319v-.657c0-.2-.1-.32-.319-.32h-.379c-.219 0-.319.14-.319.32v.657c0 .24.1.32.32.32h.378Zm2.231 5.7h-2.67l.976-3.169c.06-.219.14-.458.2-.677h.318c.04.219.14.458.2.677l.976 3.17Zm-.08-5.7c.2 0 .32-.1.32-.319v-.657c0-.2-.12-.32-.32-.32h-.378c-.22 0-.319.14-.319.32v.657c0 .24.1.32.319.32h.379Zm8.63 1.993v-1.076h-6.517v1.076h2.631v7.295h1.216v-7.295h2.67Z" fill="#7D7D7D"/></svg>