<svg width="40" height="40" viewBox="0 0 40 40" xmlns="http://www.w3.org/2000/svg"><path style="stroke:none;fill-rule:nonzero;fill:#fff;fill-opacity:1" d="M37.27.043H2.79A2.726 2.726 0 0 0 .065 2.77v34.476a2.726 2.726 0 0 0 2.723 2.727h34.48c1.5 0 2.723-1.223 2.723-2.727V2.77A2.728 2.728 0 0 0 37.27.043Zm1.785 37.203a1.79 1.79 0 0 1-1.785 1.785H2.79c-.981 0-1.786-.8-1.786-1.785V2.77A1.79 1.79 0 0 1 2.789.984h34.48c.981 0 1.786.801 1.786 1.786Zm0 0"/><path style="stroke:none;fill-rule:nonzero;fill:#0a2066;fill-opacity:1" d="M39.055 37.246a1.79 1.79 0 0 1-1.785 1.785H2.79c-.981 0-1.786-.8-1.786-1.785V2.77A1.79 1.79 0 0 1 2.789.984h34.48c.981 0 1.786.801 1.786 1.786Zm0 0"/><path style="stroke:none;fill-rule:nonzero;fill:#fff;fill-opacity:1" d="M24.625 32.809c.86-.329 1.293-.95 1.293-1.934 0-.055-.008-.11-.008-.16-.082-1.29-1.094-1.922-2.316-1.922h-3.317v6.566h1.559v-2.363h1.113l1.207 2.363h1.758Zm-1.27-.93h-1.52v-1.934h1.52c.598 0 .965.278.965.957 0 .657-.336.977-.965.977ZM11.98 28.79h-1.77l-1.089 2.874-1.226-2.137c-.235-.406-.805-.738-1.274-.738h-.887l2.688 4.727-.703 1.843h.922c.468 0 .988-.359 1.152-.793ZM16.676 32.5h-2.23l.933-2.465c.098-.265.262-.265.36 0Zm.418 1.102.664 1.757h1.672l-2.192-5.773c-.164-.438-.683-.797-1.148-.797h-1.91l-2.489 6.57h.836c.457 0 .97-.359 1.133-.797l.367-.96h3.067M30.117 30.035c.102-.265.262-.265.36 0l.937 2.465h-2.23Zm-1.351 3.567h3.066l.363.964c.168.434.676.793 1.137.793h.836l-2.488-6.57h-1.91c-.47 0-.985.36-1.153.797l-2.187 5.773h1.668l.668-1.757"/><path style="stroke:none;fill-rule:evenodd;fill:#fff;fill-opacity:1" d="M10.605 10.242c0-3.914 2.586-6.387 2.586-6.387.063-.054.278-.046.442-.046h2.89c-1.457 1.273-2.367 4.48-2.367 6.433 0 1.942.91 5.149 2.367 6.43h-2.89c-.164 0-.38.012-.442-.043 0 0-2.586-2.477-2.586-6.387Zm15.012 6.387c.067.055.274.043.45.043h2.886c-1.465-1.281-2.375-4.488-2.375-6.43 0-1.953.91-5.16 2.375-6.433h-2.887c-.175 0-.382-.008-.449.046 0 0-2.582 2.473-2.582 6.387 0 3.91 2.582 6.387 2.582 6.387Zm-6.215 0c.075.055.278.043.453.043h2.88c-1.458-1.281-2.376-4.488-2.376-6.43 0-1.953.918-5.16 2.375-6.433h-2.879c-.175 0-.378-.008-.453.046 0 0-2.578 2.52-2.578 6.387 0 3.867 2.578 6.387 2.578 6.387Zm14.133 5.125c-.441-.902-1.21-2.434-1.351-2.953 0 0-.461-1.176.78-1.367.528-.079.88-.461.903-.961l-.004-.578a.168.168 0 0 0-.152-.157h-2.055c-.035 0-1.441.157-1.46 1.871-.044 2.926.019 3.317-.766 3.45a.14.14 0 0 1-.125-.137c0-.031.004-.059.004-.09a2.82 2.82 0 0 0-4.84-1.965c-.02.031-.07.078-.13.078-.058 0-.109-.047-.128-.078a2.817 2.817 0 0 0-4.035 0h-.004c-.02.031-.07.078-.125.078-.059 0-.11-.047-.133-.078a2.814 2.814 0 0 0-4.035 0c-.02.031-.07.078-.129.078s-.11-.047-.129-.078a2.817 2.817 0 0 0-4.836 1.965v.09c0 .078-.066.137-.144.137-.797-.13-.735-.508-.778-3.45-.015-1.714-1.425-1.87-1.46-1.87H6.351a.164.164 0 0 0-.153.156l-.008.578c.028.5.38.882.903.96 1.246.192.781 1.368.781 1.368-.14.52-.91 2.05-1.352 2.953-.28.586-.855 2.023.043 3.41.524.805 1.141 1.555 3.332 1.52h20.266c2.2.035 2.809-.715 3.332-1.52l-.004-.004c.899-1.387.328-2.824.043-3.406ZM13.602 19.14a1.692 1.692 0 1 0 .001 3.384 1.692 1.692 0 0 0-.001-3.384Zm12.886 0a1.692 1.692 0 1 0 .002 3.384 1.692 1.692 0 0 0-.002-3.384Zm-8.59 0a1.692 1.692 0 1 0 .002 3.384 1.692 1.692 0 0 0-.002-3.384Zm4.293 0a1.692 1.692 0 1 0 .002 3.384 1.692 1.692 0 0 0-.002-3.384Zm0 0"/></svg>