<svg width="100%" height="100%" viewBox="0 0 24 24" version="1.1" xmlns="http://www.w3.org/2000/svg" xmlns:xlink="http://www.w3.org/1999/xlink" fit="" preserveAspectRatio="xMidYMid meet" focusable="false">
    <path d="M12,22 C13.1,22 14,21.1 14,20 L10,20 C10,21.1 10.89,22 12,22 Z M18,15.9090909 L18,10.7575758 C18,7.59454545 16.36,4.94666667 13.5,4.24606061 L13.5,3.54545455 C13.5,2.69030303 12.83,2 12,2 C11.17,2 10.5,2.69030303 10.5,3.54545455 L10.5,4.24606061 C7.63,4.94666667 6,7.58424242 6,10.7575758 L6,15.9090909 L4,17.969697 L4,19 L20,19 L20,17.969697 L18,15.9090909 Z" fill-rule="nonzero"></path>
</svg>