<svg width="100%" height="100%" viewBox="0 0 24 24" version="1.1" xmlns="http://www.w3.org/2000/svg" xmlns:xlink="http://www.w3.org/1999/xlink" fit="" preserveAspectRatio="xMidYMid meet" focusable="false">
    <g stroke="none" stroke-width="1" fill-rule="evenodd">
        <polygon fill="none" opacity="0" points="2 2 22 2 22 22 2 22"></polygon>
        <path d="M22.0100765,20.5489909 L16.5687924,15.1177834 C19.2757462,11.7569643 18.8558509,6.86045366 15.6162194,4.00957801 C12.376588,1.15870236 7.46642848,1.36476467 4.47705019,4.47705019 C1.36476467,7.46642848 1.15870236,12.376588 4.00957801,15.6162194 C6.86045366,18.8558509 11.7569643,19.2757462 15.1177834,16.5687924 L20.5489909,22 L21.9697706,20.5792203 L22.0100765,20.5489909 Z M10.2105513,16.2261931 C7.32607634,16.2287324 4.84153339,14.1932448 4.27649185,11.3646532 C3.7114503,8.5360616 5.22329881,5.70225185 7.88737688,4.59640813 C10.5514549,3.4905644 13.625701,4.42071227 15.2298777,6.81796472 C16.8340544,9.21521717 16.5213289,12.4118351 14.4829669,14.4527375 C13.3502338,15.5868824 11.8134758,16.224782 10.2105513,16.2261931 Z"></path>
    </g>
</svg>