<svg width="100%" height="100%" viewBox="0 0 24 24" version="1.1" xmlns="http://www.w3.org/2000/svg" xmlns:xlink="http://www.w3.org/1999/xlink" fit="" preserveAspectRatio="xMidYMid meet" focusable="false">
    <g stroke="none" stroke-width="1" fill-rule="evenodd">
        <polygon fill="none" opacity="0" points="2 2 22 2 22 22 2 22"></polygon>
        <path d="M14.975,6.80833333 L13.7916667,5.21666667 L22,5.21666667 L14.975,6.80833333 Z M6.55,19.8833333 L10.2916667,16.1916667 L8.04166667,13.7583333 L6.55,19.8833333 Z M14.3666667,6.90833333 L13.1583333,5.24166667 L11.1666667,6.74166667 L14.375,6.90833333 L14.3666667,6.90833333 Z M9.61666667,6.66666667 L5.23333333,5 L5.9,6.49166667 L9.60833333,6.66666667 L9.61666667,6.66666667 Z M2,6.825 L7.55833333,12.4333333 L10.2833333,7.25 L2,6.825 Z M14.5,7.45833333 L10.875,7.275 L7.94166667,12.8583333 L10.6666667,15.8 L13.5833333,12.9166667 L14.5,7.45833333 Z"></path>
    </g>
</svg>