<svg width="100%" height="100%" viewBox="0 0 24 24" version="1.1" xmlns="http://www.w3.org/2000/svg" fit="" preserveAspectRatio="xMidYMid meet" focusable="false"><path fill-rule="evenodd" clip-rule="evenodd" d="M5.3916 5.7298H4.8916V6.2298V18.5171V19.0171H5.3916H18.542H19.043L19.042 18.5161L19.0219 8.72814L19.0208 8.22833L18.521 8.22917L17.6304 8.23068V6.95901V6.45901H17.1304H9.80115L9.23528 5.88025L9.08818 5.7298H8.87777H5.3916ZM10.7789 7.45901L11.5434 8.24098L16.6304 8.23237V7.45901H10.7789ZM5.8916 18.0171V6.7298H8.66735L10.9758 9.09088L11.1233 9.24169L11.3342 9.24133L18.0229 9.23002L18.041 18.0171H5.8916ZM15.9566 15.5588H7.73438V14.5588H15.9566V15.5588ZM7.73438 13.4196H15.9566V12.4196H7.73438V13.4196Z"></path></svg>