<svg width="82" height="44" viewBox="0 0 82 44" fill="none" xmlns="http://www.w3.org/2000/svg"><g clip-path="url(#clip0_636_12806)"><path fill-rule="evenodd" clip-rule="evenodd" d="M50.5203 33.935C45.7957 37.4159 38.9447 39.2751 33.0479 39.2751C24.7773 39.2751 17.3337 36.2143 11.7006 31.1315C11.2577 30.731 11.655 30.1872 12.1857 30.4965C18.265 34.0327 25.7801 36.1622 33.5428 36.1622C39.1397 36.1362 44.6762 35.003 49.8333 32.8279C50.6343 32.4893 51.3051 33.3489 50.5203 33.935Z" fill="#FF9900"/><path fill-rule="evenodd" clip-rule="evenodd" d="M52.4872 31.6887C51.8848 30.9137 48.4919 31.324 46.9713 31.5031C46.5057 31.5585 46.4373 31.1547 46.8541 30.8649C49.5567 28.9666 53.985 29.5136 54.506 30.1485C55.0205 30.79 54.3692 35.2346 51.8327 37.3511C51.442 37.6767 51.0708 37.5042 51.2433 37.0744C51.8132 35.6514 53.0928 32.4604 52.4872 31.6887Z" fill="#FF9900"/><path fill-rule="evenodd" clip-rule="evenodd" d="M47.0786 17.4493V15.6031C47.0768 15.5413 47.0876 15.4798 47.1104 15.4223C47.1331 15.3649 47.1673 15.3126 47.2108 15.2688C47.2544 15.2249 47.3064 15.1904 47.3637 15.1672C47.421 15.1441 47.4825 15.1329 47.5442 15.1342H55.8181C56.0819 15.1342 56.2968 15.3263 56.2968 15.6031V17.1856C56.2935 17.4461 56.0688 17.7977 55.6716 18.3448L51.3865 24.4663C52.9787 24.424 54.6589 24.6617 56.1046 25.4757C56.4303 25.6613 56.5182 25.9316 56.5442 26.1921V28.1653C56.5442 28.4356 56.2447 28.7514 55.9353 28.5886C54.5828 27.893 53.0833 27.5312 51.5624 27.5335C50.0414 27.5358 48.5431 27.902 47.1926 28.6016C46.906 28.7579 46.6065 28.4453 46.6065 28.1783V26.3028C46.6065 26.0032 46.6065 25.4888 46.9093 25.0329L51.8782 17.915H47.554C47.4917 17.9177 47.4295 17.9075 47.3712 17.8852C47.313 17.8629 47.2599 17.8288 47.2154 17.7852C47.1708 17.7416 47.1357 17.6892 47.1122 17.6315C47.0886 17.5737 47.0772 17.5117 47.0786 17.4493ZM16.8942 28.9761H14.3804C14.2664 28.9703 14.1582 28.9238 14.0757 28.8448C13.9932 28.7659 13.9419 28.6599 13.9311 28.5463V15.6357C13.9311 15.3752 14.146 15.1733 14.4162 15.1733H16.7607C16.8763 15.1776 16.9865 15.224 17.0704 15.3037C17.1543 15.3834 17.2063 15.491 17.2165 15.6064V17.293H17.2654C17.8775 15.6617 19.0269 14.8998 20.5769 14.8998C22.1528 14.8998 23.1394 15.6617 23.846 17.293C24.4549 15.6617 25.8388 14.8998 27.3236 14.8998C28.3786 14.8998 29.5313 15.3361 30.2346 16.3129C31.0323 17.3972 30.8695 18.9765 30.8695 20.3636V28.5105C30.8661 28.6368 30.8128 28.7567 30.7213 28.844C30.6298 28.9312 30.5075 28.9787 30.3811 28.9761H27.8674C27.7466 28.9704 27.6325 28.9192 27.548 28.8328C27.4634 28.7465 27.4147 28.6313 27.4115 28.5105V21.6595C27.4115 21.1158 27.4636 19.7579 27.3464 19.2402C27.1575 18.3741 26.5942 18.1299 25.8648 18.1299C25.538 18.1397 25.2213 18.2452 24.9539 18.4333C24.6865 18.6214 24.4802 18.8839 24.3605 19.1881C24.1 19.8393 24.1261 20.9269 24.1261 21.6628V28.5007C24.1252 28.5634 24.112 28.6253 24.0871 28.6829C24.0622 28.7405 24.0262 28.7925 23.9811 28.8361C23.936 28.8797 23.8827 28.9139 23.8243 28.9368C23.7659 28.9597 23.7036 28.9709 23.6409 28.9696H21.1271C21.0062 28.9646 20.8916 28.9137 20.8069 28.8272C20.7222 28.7406 20.6737 28.625 20.6713 28.5039V21.6595C20.6713 20.2203 20.909 18.1006 19.1214 18.1006C17.3109 18.1006 17.3826 20.1682 17.3826 21.6595V28.5039C17.3792 28.6303 17.3259 28.7502 17.2344 28.8375C17.1429 28.9247 17.0206 28.9722 16.8942 28.9696M63.4179 14.8933C67.1527 14.8933 69.1748 18.1006 69.1748 22.1773C69.1748 26.1172 66.9411 29.2431 63.4179 29.2431C59.7515 29.2431 57.7523 26.0358 57.7523 22.0405C57.7523 18.0192 59.7743 14.8933 63.4179 14.8933ZM63.4407 17.5307C61.5847 17.5307 61.4675 20.0575 61.4675 21.6335C61.4675 23.2095 61.4415 26.5828 63.4212 26.5828C65.3684 26.5828 65.4595 23.8607 65.4595 22.2066C65.4595 21.1158 65.414 19.8133 65.0851 18.7811C64.8018 17.8824 64.2385 17.5307 63.4407 17.5307ZM74.0167 28.9728H71.5095C71.3893 28.9663 71.276 28.9148 71.1921 28.8285C71.1083 28.7422 71.06 28.6275 71.0569 28.5072V15.5901C71.0698 15.4721 71.1265 15.3632 71.2157 15.2849C71.3049 15.2066 71.4201 15.1644 71.5388 15.1668H73.8734C73.9777 15.1707 74.0779 15.2084 74.1589 15.2742C74.24 15.3399 74.2975 15.4302 74.3228 15.5315V17.5047H74.3684C75.0717 15.7399 76.0616 14.8998 77.8003 14.8998C78.927 14.8998 80.0308 15.3035 80.7374 16.4171C81.3951 17.4526 81.3951 19.1914 81.3951 20.4385V28.5691C81.3771 28.6841 81.318 28.7886 81.2288 28.8635C81.1396 28.9383 81.0263 28.9783 80.91 28.9761H78.3864C78.2765 28.9704 78.1718 28.9267 78.0905 28.8525C78.0091 28.7783 77.956 28.6781 77.9404 28.5691V21.5553C77.9404 20.1422 78.1032 18.0713 76.3644 18.0713C75.7522 18.0713 75.1922 18.4848 74.9089 19.11C74.5572 19.898 74.5084 20.6827 74.5084 21.5521V28.5105C74.5033 28.6363 74.4495 28.7552 74.3584 28.8421C74.2672 28.929 74.1459 28.977 74.02 28.9761M40.4817 22.809C40.4817 23.7858 40.5077 24.6063 40.0095 25.4757C39.609 26.1823 38.9741 26.6154 38.2675 26.6154C37.3037 26.6154 36.7371 25.8828 36.7371 24.7919C36.7371 22.6527 38.6582 22.2619 40.4817 22.2619V22.809ZM43.0215 28.9403C42.9404 29.0102 42.8398 29.0536 42.7332 29.0647C42.6267 29.0758 42.5193 29.0539 42.4256 29.0021C41.5888 28.3086 41.439 27.983 40.9799 27.322C39.5993 28.7319 38.6192 29.1519 36.8315 29.1519C34.7118 29.1519 33.0642 27.8495 33.0642 25.2315C33.0642 23.1899 34.1713 21.7995 35.7472 21.119C37.1148 20.5166 39.0229 20.4124 40.4817 20.2464V19.9208C40.4817 19.3216 40.5273 18.615 40.1723 18.0973C39.8695 17.6317 39.2802 17.4428 38.7592 17.4428C37.8019 17.4428 36.9487 17.9312 36.7404 18.9537C36.698 19.1816 36.5287 19.403 36.3008 19.4095L33.8587 19.149C33.6568 19.1067 33.4256 18.9407 33.4842 18.6248C34.0443 15.6617 36.7208 14.7728 39.1173 14.7728C40.3384 14.7728 41.9404 15.0984 42.9075 16.0264C44.1318 17.1661 44.0146 18.6964 44.0146 20.3571V24.2775C44.0146 25.4562 44.503 25.9707 44.9621 26.6089C45.1249 26.8368 45.1575 27.1071 44.9524 27.2764C44.4379 27.7062 43.5262 28.5007 43.0215 28.9468V28.9403ZM7.4839 22.8057C7.4839 23.7825 7.5067 24.6031 7.01176 25.4725C6.61126 26.1791 5.97956 26.6121 5.26972 26.6121C4.30265 26.6121 3.73934 25.8795 3.73934 24.7887C3.73934 22.6494 5.66372 22.2587 7.4839 22.2587V22.8057ZM10.0237 28.937C9.94259 29.007 9.842 29.0504 9.73547 29.0615C9.62893 29.0725 9.52157 29.0507 9.42782 28.9989C8.59099 28.3053 8.44121 27.9797 7.98209 27.3187C6.60149 28.7286 5.62464 29.1487 3.83377 29.1487C1.71727 29.1487 0.0664062 27.8462 0.0664062 25.2283C0.0664062 23.1867 1.1735 21.7963 2.74947 21.1158C4.11705 20.5134 6.02515 20.4092 7.4839 20.2431V19.9175C7.4839 19.3184 7.52949 18.6118 7.17783 18.0941C6.87175 17.6284 6.28239 17.4396 5.76466 17.4396C4.80735 17.4396 3.95099 17.928 3.73934 18.9504C3.69701 19.1784 3.53094 19.3998 3.30627 19.4063L0.864162 19.1458C0.659025 19.1002 0.431094 18.9374 0.486449 18.6216C1.04976 15.6585 3.72306 14.7695 6.11958 14.7695C7.34063 14.7695 8.94266 15.0951 9.90647 16.0231C11.134 17.1628 11.0136 18.6932 11.0136 20.3538V24.2742C11.0136 25.4529 11.502 25.9674 11.9644 26.6056C12.1272 26.8335 12.163 27.1038 11.9578 27.2731C11.4434 27.7029 10.5317 28.4974 10.027 28.9435L10.0204 28.937" fill="white"/></g><defs><clipPath id="clip0_636_12806"><rect width="81.8497" height="43.0788" fill="white" transform="translate(0.0625 0.312012)"/></clipPath></defs></svg>
