<svg width="128" height="128" viewBox="0 0 128 128" fill="none" xmlns="http://www.w3.org/2000/svg"><path d="M67.737 36.811a5.645 5.645 0 01-5.935 1.32 5.616 5.616 0 01-3.647-4.387 5.655 5.655 0 119.582 3.067zM30.246 75.531a5.636 5.636 0 01-5.925 1.319 5.416 5.416 0 01-2.078-1.319 5.526 5.526 0 01-1.58-3.058 5.656 5.656 0 119.583 3.058zM105.757 75.531a5.632 5.632 0 01-5.925 1.319 5.416 5.416 0 01-2.078-1.319 5.526 5.526 0 01-1.58-3.058 5.656 5.656 0 119.583 3.058zM95.805 48.562a5.655 5.655 0 01-5.875 1.309 5.605 5.605 0 01-3.657-4.377 5.665 5.665 0 119.582 3.068h-.05zM40.139 48.562a5.696 5.696 0 01-7.994 0 5.555 5.555 0 01-1.579-3.068 5.665 5.665 0 119.583 3.068h-.01z" fill="#fff" stroke="#007FED" stroke-width="4" stroke-miterlimit="10"/><path d="M32.425 71.614h10.142M63.73 38.46v11.75M40.388 48.252l8.314 8.314M87.162 48.032l-8.314 8.314M96.095 71.614H85.203M63.77 79.948a8.763 8.763 0 100-17.527 8.763 8.763 0 000 17.527zM77.2 100.921v-3.557a13.43 13.43 0 00-26.85 0v3.557" stroke="#007FED" stroke-width="4" stroke-miterlimit="10"/></svg>
